<!-- SVG Sprite -->
<svg width="0" height="0" class="hidden">
  <symbol xmlns="http://www.w3.org/2000/svg" viewBox="0 0 27 33" id="location">
    <g clip-path="url(#clip0)">
      <path d="M13.8607 19.8639C17.3535 19.8639 20.194 17.0234 20.194 13.5306C20.194 10.0378 17.3535 7.19727 13.8607 7.19727C10.3678 7.19727 7.52734 10.0378 7.52734 13.5306C7.52734 17.0234 10.3678 19.8639 13.8607 19.8639ZM13.8607 10.3639C15.6071 10.3639 17.0273 11.7842 17.0273 13.5306C17.0273 15.277 15.6071 16.6973 13.8607 16.6973C12.1143 16.6973 10.694 15.277 10.694 13.5306C10.694 11.7842 12.1143 10.3639 13.8607 10.3639Z"></path>
      <path d="M12.6078 32.2359C12.8758 32.4273 13.1969 32.5302 13.5262 32.5302C13.8555 32.5302 14.1765 32.4273 14.4445 32.2359C14.9258 31.8955 26.2388 23.7271 26.1928 13.5304C26.1928 6.54635 20.5103 0.86377 13.5262 0.86377C6.5421 0.86377 0.859514 6.54635 0.859514 13.5225C0.813598 23.7271 12.1265 31.8955 12.6078 32.2359ZM13.5262 4.03044C18.7654 4.03044 23.0262 8.29119 23.0262 13.5384C23.0594 20.5652 16.0785 26.8748 13.5262 28.9442C10.9754 26.8732 3.99293 20.562 4.02618 13.5304C4.02618 8.29119 8.28693 4.03044 13.5262 4.03044Z"></path>
    </g>
    <defs>
      <clipPath id="clip0">
        <rect width="26" height="32" fill="white" transform="translate(0.859375 0.697266)"></rect>
      </clipPath>
    </defs>
  </symbol>
  <symbol xmlns="http://www.w3.org/2000/svg" viewBox="0 0 28 23" id="mail">
    <g clip-path="url(#clip0)">
      <path d="M26.1719 1.38477H1.79688C1.27832 1.38477 0.859375 1.80371 0.859375 2.32227V21.0723C0.859375 21.5908 1.27832 22.0098 1.79688 22.0098H26.1719C26.6904 22.0098 27.1094 21.5908 27.1094 21.0723V2.32227C27.1094 1.80371 26.6904 1.38477 26.1719 1.38477ZM25 4.63086V19.9004H2.96875V4.63086L2.16016 4.00098L3.31152 2.52148L4.56543 3.49707H23.4062L24.6602 2.52148L25.8115 4.00098L25 4.63086ZM23.4062 3.49414L13.9844 10.8184L4.5625 3.49414L3.30859 2.51855L2.15723 3.99805L2.96582 4.62793L12.9736 12.4092C13.2614 12.6328 13.6155 12.7542 13.98 12.7542C14.3444 12.7542 14.6985 12.6328 14.9863 12.4092L25 4.63086L25.8086 4.00098L24.6572 2.52148L23.4062 3.49414Z"></path>
    </g>
    <defs>
      <clipPath id="clip0">
        <rect width="27" height="22" fill="white" transform="translate(0.859375 0.697266)"></rect>
      </clipPath>
    </defs>
  </symbol>
  <symbol xmlns="http://www.w3.org/2000/svg" viewBox="0 0 22 35" id="phone">
    <g clip-path="url(#clip0)">
      <path d="M16.901 1.65576H5.23438C2.81354 1.65576 0.859375 3.60993 0.859375 6.03076V29.3641C0.859375 31.7849 2.81354 33.7391 5.23438 33.7391H16.901C19.3219 33.7391 21.276 31.7849 21.276 29.3641V6.03076C21.276 3.60993 19.3219 1.65576 16.901 1.65576ZM13.9844 30.8224H8.15104V29.3641H13.9844V30.8224ZM18.724 26.4474H3.41146V6.03076H18.724V26.4474Z"></path>
    </g>
    <defs>
      <clipPath id="clip0">
        <rect width="21" height="34" fill="white" transform="translate(0.859375 0.697266)"></rect>
      </clipPath>
    </defs>
  </symbol>
  <symbol xmlns="http://www.w3.org/2000/svg" viewBox="0 0 35 28" id="twitter">
    <path d="M34.0048 3.87572C32.78 4.40407 31.4472 4.78431 30.0743 4.93241C31.4997 4.0856 32.5671 2.74779 33.0762 1.16997C31.7387 1.96564 30.2734 2.52358 28.7454 2.81904C28.1068 2.1363 27.3344 1.5924 26.4764 1.22123C25.6183 0.85006 24.693 0.659573 23.7582 0.661638C19.9757 0.661638 16.9338 3.72763 16.9338 7.49007C16.9338 8.01841 16.9978 8.54675 17.1019 9.05508C11.4382 8.75889 6.38691 6.05314 3.02873 1.91045C2.41683 2.95559 2.09618 4.1456 2.10013 5.35668C2.10013 7.72622 3.30491 9.81558 5.1421 11.0444C4.05942 11.0017 3.00208 10.7041 2.0561 10.1758V10.2599C2.0561 13.578 4.40162 16.3278 7.52765 16.9602C6.9407 17.1127 6.3369 17.1907 5.73048 17.1924C5.28619 17.1924 4.86592 17.1483 4.44165 17.0883C5.30621 19.7941 7.82384 21.7593 10.8218 21.8234C8.47626 23.6606 5.53836 24.7413 2.34829 24.7413C1.77592 24.7413 1.24757 24.7213 0.699219 24.6572C3.72518 26.5985 7.31551 27.7192 11.182 27.7192C23.7342 27.7192 30.6026 17.3204 30.6026 8.29459C30.6026 7.9984 30.6026 7.70221 30.5826 7.40601C31.9115 6.43338 33.0762 5.2286 34.0048 3.87572Z"></path>
  </symbol>
  <symbol xmlns="http://www.w3.org/2000/svg" viewBox="0 0 16 16" id="02">
    <path d="M6.52403 15.8684C8.02267 15.2461 7.69432 13.5301 6.93658 12.4453C6.18725 11.3339 5.15168 10.5693 4.10768 9.83131C3.36278 9.3355 2.69768 8.71718 2.13755 7.99972C1.90181 7.70631 1.42191 7.16395 1.91023 7.05725C2.40697 6.95056 3.26574 7.46625 3.70355 7.66186C4.46971 7.99972 5.22745 8.39094 5.93467 8.85328L6.78503 7.34177C5.47161 6.42598 3.78774 5.61688 2.22174 5.37682C1.32929 5.23456 0.386327 5.43017 0.0832306 6.45265C-0.186188 7.33288 0.243198 8.222 0.73152 8.91552C1.88497 10.5426 3.67829 11.325 5.01697 12.7298C5.30322 13.0233 5.64842 13.37 5.8168 13.779C5.99361 14.1702 5.95151 14.1969 5.5558 14.1969C4.51181 14.1969 3.20681 13.3344 2.35645 12.7654L1.5061 14.2769C2.79426 15.1127 4.94961 16.4197 6.52403 15.8684ZM15.8611 1.99816C16.0463 1.80256 16.0463 1.48247 15.8611 1.29576L14.7666 0.139901C14.6784 0.0501483 14.5607 0 14.4382 0C14.3157 0 14.198 0.0501483 14.1099 0.139901L13.2511 1.0468L15.0023 2.89617L15.8611 1.99816ZM7.57645 7.03947V8.88884H9.32767L14.5056 3.42075L12.7543 1.57138L7.57645 7.03947Z"></path>
  </symbol>
  <symbol xmlns="http://www.w3.org/2000/svg" viewBox="0 0 18 18" id="01">
    <path d="M5.5 0.5C6.95869 0.5 8.35764 1.04727 9.38909 2.02142C10.4205 2.99556 11 4.31679 11 5.69444C11 6.95056 10.53 8.10278 9.74 9H18V17.5H9V9.69889C8.05 10.445 6.83 10.8889 5.5 10.8889C4.04131 10.8889 2.64236 10.3416 1.61091 9.36747C0.579463 8.39332 0 7.0721 0 5.69444C0 4.31679 0.579463 2.99556 1.61091 2.02142C2.64236 1.04727 4.04131 0.5 5.5 0.5Z"></path>
  </symbol>
  <symbol xmlns="http://www.w3.org/2000/svg" viewBox="0 0 18 18" id="03">
    <path d="M5.09265 10.2387L7.72386 7.60752L1.96867 1.86162C1.52239 1.41534 0.750691 1.53621 0.471764 2.11266C-0.188363 3.49799 0.0533739 5.19945 1.19697 6.35234L5.09265 10.2387ZM11.3964 8.55587C12.8189 9.21599 14.8179 8.75112 16.2962 7.2728C18.0721 5.49697 18.4161 2.94944 17.0493 1.5827C15.6919 0.225251 13.1443 0.559964 11.3592 2.3358C9.8809 3.81411 9.41602 5.81309 10.0761 7.23561L1.65255 15.6592C1.47871 15.833 1.38105 16.0688 1.38105 16.3147C1.38105 16.5605 1.47871 16.7963 1.65255 16.9702C1.8264 17.144 2.06218 17.2417 2.30803 17.2417C2.55389 17.2417 2.78967 17.144 2.96351 16.9702L8.7187 11.2336L14.4646 16.9795C14.5507 17.0655 14.6529 17.1338 14.7653 17.1804C14.8778 17.227 14.9983 17.251 15.1201 17.251C15.2418 17.251 15.3624 17.227 15.4748 17.1804C15.5873 17.1338 15.6895 17.0655 15.7756 16.9795C15.8616 16.8934 15.9299 16.7912 15.9765 16.6787C16.0231 16.5663 16.0471 16.4457 16.0471 16.324C16.0471 16.2022 16.0231 16.0817 15.9765 15.9692C15.9299 15.8568 15.8616 15.7546 15.7756 15.6685L10.0297 9.92261L11.3964 8.55587Z"></path>
  </symbol>
  <symbol xmlns="http://www.w3.org/2000/svg" viewBox="0 0 33 33" id="facebook">
    <path d="M31.072 0.180176H1.61286C0.904403 0.180176 0.332031 0.752547 0.332031 1.46101V30.9201C0.332031 31.6286 0.904403 32.201 1.61286 32.201H31.072C31.7804 32.201 32.3528 31.6286 32.3528 30.9201V1.46101C32.3528 0.752547 31.7804 0.180176 31.072 0.180176ZM27.3736 9.52624H24.8159C22.8106 9.52624 22.4224 10.4789 22.4224 11.8798V14.9658H27.2095L26.5851 19.7969H22.4224V32.201H17.4311V19.8009H13.2564V14.9658H17.4311V11.4035C17.4311 7.26877 19.9568 5.01531 23.6472 5.01531C25.4163 5.01531 26.9333 5.1474 27.3776 5.20744V9.52624H27.3736Z"></path>
  </symbol>
  <symbol xmlns="http://www.w3.org/2000/svg" viewBox="0 0 33 33" id="linkedin">
    <path d="M31.0564 0.180176H1.59724C0.888778 0.180176 0.316406 0.752547 0.316406 1.46101V30.9201C0.316406 31.6286 0.888778 32.201 1.59724 32.201H31.0564C31.7648 32.201 32.3372 31.6286 32.3372 30.9201V1.46101C32.3372 0.752547 31.7648 0.180176 31.0564 0.180176ZM9.81457 27.4659H5.06349V12.184H9.81457V27.4659ZM7.44103 10.0946C6.89638 10.0946 6.36397 9.9331 5.91111 9.63051C5.45825 9.32792 5.10529 8.89784 4.89686 8.39465C4.68843 7.89146 4.6339 7.33777 4.74016 6.80359C4.84641 6.2694 5.10868 5.77872 5.49381 5.3936C5.87893 5.00848 6.36961 4.7462 6.90379 4.63995C7.43797 4.53369 7.99167 4.58823 8.49486 4.79665C8.99805 5.00508 9.42813 5.35804 9.73072 5.8109C10.0333 6.26376 10.1948 6.79617 10.1948 7.34082C10.1908 8.86181 8.95801 10.0946 7.44103 10.0946ZM27.6021 27.4659H22.855V20.0331C22.855 18.2599 22.823 15.9824 20.3854 15.9824C17.9158 15.9824 17.5356 17.9117 17.5356 19.905V27.4659H12.7925V12.184H17.3475V14.2733H17.4115C18.0439 13.0725 19.5929 11.8037 21.9064 11.8037C26.7175 11.8037 27.6021 14.9698 27.6021 19.0844V27.4659Z"></path>
  </symbol>
</svg>